<svg width="166" height="71" viewBox="0 0 166 71" fill="none" xmlns="http://www.w3.org/2000/svg">
<path d="M30.755 5.88666L37.4729 10.9619L33.369 16.1835C36.2025 19.3897 37.2468 23.0481 37.2468 27.0791C37.2468 31.6289 35.5307 38.0478 29.4846 40.8083C35.6039 43.868 37.0938 48.2715 37.0938 52.9743C37.0938 63.1248 29.3316 69.3907 18.6627 69.3907C7.99385 69.3907 0.012146 62.8987 0.012146 52.9743H9.03812C9.03812 57.7502 13.4414 60.8832 18.6627 60.8832C23.8841 60.8832 27.988 58.0495 27.988 52.9743C27.988 47.899 23.2123 45.5842 18.6627 45.5842C7.17572 45.5842 0.012146 38.5733 0.012146 27.0791C0.012146 15.5849 8.36633 8.42097 18.6694 8.42097C21.5827 8.42097 24.5625 8.79347 27.1034 10.5096L30.755 5.88666ZM9.03812 27.0791C9.03812 33.498 13.3682 37.3028 18.6627 37.3028C23.8841 37.3028 28.2142 33.4248 28.2142 27.0791C28.2142 20.7333 23.8907 16.709 18.6694 16.709C13.3682 16.709 9.03812 20.6602 9.03812 27.0791Z" fill="#112211"/>
<path d="M165.988 28.1573C165.988 38.7535 158.751 47.3342 146.812 47.3342C134.873 47.3342 127.709 38.7535 127.709 28.1573C127.709 17.6342 135.019 8.98035 146.739 8.98035C158.458 8.98035 165.988 17.6342 165.988 28.1573ZM136.808 28.1573C136.808 33.7514 140.167 38.9797 146.805 38.9797C153.443 38.9797 156.802 33.758 156.802 28.1573C156.802 22.6364 152.924 17.2618 146.805 17.2618C140.24 17.2618 136.808 22.6364 136.808 28.1573Z" fill="#112211"/>
<mask id="path-3-inside-1_126_115" fill="white">
<path fill-rule="evenodd" clip-rule="evenodd" d="M83.0107 19.273C80.0598 13.1162 73.908 8.87317 65.7016 8.87317C53.9818 8.87317 46.6719 17.5271 46.6719 28.0501C46.6719 34.7683 49.5515 40.6763 54.7021 44.1009C54.9954 43.8814 55.1721 43.739 55.1721 43.739C57.7412 42.0626 60.2475 40.298 62.6867 38.4488C58.0915 37.0967 55.771 32.6998 55.771 28.0501C55.771 22.5292 59.2098 17.1546 65.7681 17.1546C71.5437 17.1546 75.3225 21.9423 75.7288 27.1221C78.2604 24.6095 80.6899 21.9912 83.0107 19.273ZM64.8459 47.2095C72.1133 42.0583 78.8329 36.1739 84.8947 29.654C84.2008 39.4988 77.1054 47.2271 65.7747 47.2271C65.4618 47.2271 65.1522 47.2212 64.8459 47.2095Z"/>
</mask>
<path fill-rule="evenodd" clip-rule="evenodd" d="M83.0107 19.273C80.0598 13.1162 73.908 8.87317 65.7016 8.87317C53.9818 8.87317 46.6719 17.5271 46.6719 28.0501C46.6719 34.7683 49.5515 40.6763 54.7021 44.1009C54.9954 43.8814 55.1721 43.739 55.1721 43.739C57.7412 42.0626 60.2475 40.298 62.6867 38.4488C58.0915 37.0967 55.771 32.6998 55.771 28.0501C55.771 22.5292 59.2098 17.1546 65.7681 17.1546C71.5437 17.1546 75.3225 21.9423 75.7288 27.1221C78.2604 24.6095 80.6899 21.9912 83.0107 19.273ZM64.8459 47.2095C72.1133 42.0583 78.8329 36.1739 84.8947 29.654C84.2008 39.4988 77.1054 47.2271 65.7747 47.2271C65.4618 47.2271 65.1522 47.2212 64.8459 47.2095Z" fill="#8DD3BB"/>
<path d="M83.0107 19.273L83.7713 19.9223L84.1937 19.4275L83.9125 18.8407L83.0107 19.273ZM54.7021 44.1009L54.1485 44.9336L54.7362 45.3244L55.3013 44.9015L54.7021 44.1009ZM55.1721 43.739L54.6256 42.9015L54.5835 42.929L54.5443 42.9606L55.1721 43.739ZM62.6867 38.4488L63.2909 39.2457L64.8697 38.0487L62.969 37.4895L62.6867 38.4488ZM75.7288 27.1221L74.7318 27.2003L74.9007 29.3528L76.4332 27.8318L75.7288 27.1221ZM64.8459 47.2095L64.2677 46.3937L61.8651 48.0967L64.8079 48.2088L64.8459 47.2095ZM84.8947 29.654L85.8922 29.7243L86.0914 26.8981L84.1623 28.9731L84.8947 29.654ZM65.7016 9.87317C73.5294 9.87317 79.327 13.901 82.109 19.7052L83.9125 18.8407C80.7926 12.3314 74.2865 7.87317 65.7016 7.87317V9.87317ZM47.6719 28.0501C47.6719 18.0268 54.5852 9.87317 65.7016 9.87317V7.87317C53.3783 7.87317 45.6719 17.0274 45.6719 28.0501H47.6719ZM55.2558 43.2682C50.4218 40.0541 47.6719 34.4816 47.6719 28.0501H45.6719C45.6719 35.055 48.6812 41.2986 54.1485 44.9336L55.2558 43.2682ZM55.1721 43.739C54.5443 42.9606 54.5443 42.9606 54.5443 42.9605C54.5443 42.9605 54.5444 42.9605 54.5444 42.9605C54.5444 42.9605 54.5444 42.9605 54.5444 42.9605C54.5445 42.9604 54.5445 42.9604 54.5445 42.9604C54.5445 42.9604 54.5445 42.9604 54.5445 42.9604C54.5444 42.9605 54.5441 42.9607 54.5437 42.9611C54.5428 42.9618 54.5412 42.963 54.539 42.9648C54.5346 42.9683 54.5276 42.9739 54.5181 42.9815C54.4991 42.9966 54.47 43.0195 54.432 43.0492C54.3558 43.1086 54.2437 43.195 54.103 43.3003L55.3013 44.9015C55.4539 44.7874 55.5767 44.6928 55.6622 44.6261C55.7049 44.5927 55.7384 44.5663 55.7616 44.5479C55.7733 44.5386 55.7823 44.5314 55.7887 44.5263C55.7919 44.5237 55.7945 44.5217 55.7963 44.5202C55.7973 44.5194 55.798 44.5188 55.7986 44.5184C55.7989 44.5181 55.7991 44.5179 55.7993 44.5178C55.7994 44.5177 55.7995 44.5176 55.7996 44.5175C55.7997 44.5175 55.7997 44.5175 55.7997 44.5175C55.7998 44.5174 55.7998 44.5174 55.7998 44.5174C55.7998 44.5174 55.7998 44.5174 55.1721 43.739ZM62.0826 37.6519C59.6621 39.4869 57.1751 41.238 54.6256 42.9015L55.7185 44.5765C58.3074 42.8872 60.8329 41.1091 63.2909 39.2457L62.0826 37.6519ZM54.771 28.0501C54.771 32.9953 57.2569 37.8935 62.4045 39.4081L62.969 37.4895C58.9262 36.2999 56.771 32.4042 56.771 28.0501H54.771ZM65.7681 16.1546C62.187 16.1546 59.4062 17.6343 57.5391 19.8952C55.6901 22.1343 54.771 25.0935 54.771 28.0501H56.771C56.771 25.4858 57.5713 22.9972 59.0813 21.1687C60.5731 19.3622 62.7909 18.1546 65.7681 18.1546V16.1546ZM76.7257 27.0439C76.2896 21.4845 72.1958 16.1546 65.7681 16.1546V18.1546C70.8915 18.1546 74.3553 22.4002 74.7318 27.2003L76.7257 27.0439ZM82.2502 18.6236C79.9473 21.3209 77.5364 23.9191 75.0243 26.4123L76.4332 27.8318C78.9843 25.2999 81.4326 22.6615 83.7713 19.9223L82.2502 18.6236ZM65.4242 48.0253C72.7474 42.8345 79.5187 36.905 85.6271 30.3349L84.1623 28.9731C78.1472 35.4429 71.4792 41.282 64.2677 46.3937L65.4242 48.0253ZM83.8972 29.5837C83.5658 34.2852 81.7106 38.4387 78.6291 41.4128C75.5533 44.3813 71.2023 46.2271 65.7747 46.2271V48.2271C71.6779 48.2271 76.5399 46.2087 80.018 42.8519C83.4902 39.5007 85.5297 34.8676 85.8922 29.7243L83.8972 29.5837ZM65.7747 46.2271C65.4744 46.2271 65.1775 46.2214 64.884 46.2102L64.8079 48.2088C65.127 48.2209 65.4493 48.2271 65.7747 48.2271V46.2271Z" fill="black" mask="url(#path-3-inside-1_126_115)"/>
<path d="M90.6041 3.24881L90.6039 3.24877C85.7917 1.47939 81.6502 2.50216 78.7297 3.95732C77.2715 4.68388 76.1137 5.51959 75.3198 6.17396C74.9224 6.50147 74.6151 6.78449 74.4057 6.98716C74.301 7.08852 74.2206 7.16988 74.1657 7.22675C74.1382 7.2552 74.1171 7.27753 74.1025 7.29319L74.0853 7.31162L74.0804 7.31695L74.0789 7.31863L74.0784 7.31921C74.0782 7.31944 74.078 7.31963 74.448 7.65588L74.078 7.31963L73.6621 7.77733L74.1967 8.08814L80.5355 11.7732L80.7853 11.9184L81.0358 11.7745C82.1338 11.144 82.8245 11.1886 83.2331 11.361C83.6649 11.5431 83.9194 11.9247 84.0237 12.2021L84.0238 12.2023C84.0718 12.3297 84.0712 12.4835 84.0229 12.6593C83.9764 12.8284 83.8931 12.9889 83.8142 13.1087L82.2873 15.0371C73.9926 25.0407 64.2407 33.7327 53.3559 40.835L53.3348 40.8488L53.3153 40.8645L53.3152 40.8646L53.315 40.8647L53.3136 40.8659L53.3073 40.8709L53.281 40.8919C53.2575 40.9105 53.2225 40.9381 53.1769 40.9735C53.0859 41.0443 52.9531 41.1462 52.7881 41.2687C52.4575 41.5142 51.9999 41.8411 51.49 42.1683C50.9786 42.4965 50.4233 42.8194 49.8963 43.0611C49.358 43.3079 48.8979 43.4469 48.5628 43.4545C47.9612 43.4681 47.6745 43.2315 47.5778 42.967C47.4658 42.6607 47.5112 42.0808 48.0928 41.2472L48.254 41.0161L48.1399 40.7585L45.0802 33.854L44.8417 33.3157L44.3491 33.6383L44.6231 34.0566C44.3491 33.6383 44.3489 33.6385 44.3487 33.6386L44.348 33.6391L44.3462 33.6403L44.3404 33.6441L44.3204 33.6575C44.3033 33.6691 44.279 33.6857 44.2479 33.7074C44.1857 33.7508 44.0965 33.8144 43.9846 33.8981C43.7608 34.0654 43.4457 34.313 43.0739 34.6384C42.3309 35.2886 41.3571 36.2533 40.432 37.514C38.5802 40.0375 36.9111 43.7669 37.7114 48.5207L38.2044 48.4377L37.7114 48.5207C38.406 52.6457 42.2889 55.6077 46.4475 54.8565C48.5071 54.4888 51.0111 53.4909 54.037 51.4894C54.0373 51.4892 54.0377 51.489 54.038 51.4887L59.5298 47.8983C70.5 40.7269 80.3351 31.9397 88.6881 21.8436C88.6881 21.8436 88.6881 21.8435 88.6882 21.8435L90.5724 19.5677C93.4546 16.2867 94.7835 13.5448 95.238 11.3283C95.9564 7.84215 93.8915 4.45852 90.6041 3.24881Z" fill="#8DD3BB" stroke="black"/>
<path d="M125.777 16.2469L125.25 21.7548C123.336 21.5985 121.441 21.4618 119.566 21.3446C117.691 21.1884 115.797 21.0126 113.883 20.8173C113.57 24.5282 113.238 28.2196 112.887 31.8915C112.535 35.5634 112.183 39.2548 111.832 42.9657C111.832 43.161 111.812 43.3563 111.773 43.5516C111.734 43.7469 111.715 43.9423 111.715 44.1376C111.715 44.6844 111.773 45.2509 111.891 45.8368C112.008 46.3837 112.203 46.8915 112.476 47.3602C112.75 47.7899 113.101 48.161 113.531 48.4735C114 48.7469 114.566 48.8837 115.23 48.8837C116.519 48.8837 117.652 48.5907 118.629 48.0048C119.605 47.3798 120.426 46.5985 121.09 45.661C121.754 44.7235 122.281 43.6884 122.672 42.5555C123.062 41.3837 123.316 40.2313 123.433 39.0985C123.902 40.9344 124.137 42.7509 124.137 44.5477C124.137 46.2665 123.863 47.829 123.316 49.2352C122.769 50.6024 122.008 51.7938 121.031 52.8094C120.055 53.786 118.883 54.5477 117.516 55.0946C116.148 55.6415 114.644 55.9149 113.004 55.9149C111.285 55.9149 109.781 55.6219 108.492 55.036C107.203 54.4501 106.129 53.6493 105.269 52.6337C104.449 51.579 103.824 50.3485 103.394 48.9423C103.004 47.536 102.808 46.0321 102.808 44.4305C102.808 44.118 102.808 43.8251 102.808 43.5516C102.808 43.2782 102.828 42.9852 102.867 42.6727C103.18 38.8837 103.473 35.1532 103.746 31.4813C104.058 27.7704 104.332 24.0204 104.566 20.2313C103.512 20.1532 102.457 20.0751 101.402 19.9969C100.387 19.8798 99.3514 19.7626 98.2968 19.6454L98.5311 15.0165C99.3514 14.9774 100.211 14.8407 101.109 14.6063C102.008 14.3719 102.867 14.0594 103.687 13.6688C104.547 13.2782 105.328 12.8094 106.031 12.2626C106.773 11.7157 107.379 11.0907 107.848 10.3876C108.277 9.68445 108.668 8.92273 109.019 8.10242C109.41 7.2821 109.742 6.42273 110.016 5.52429C110.328 4.62585 110.582 3.74695 110.777 2.88757C110.973 1.98914 111.109 1.12976 111.187 0.309448L115.992 0.426636L114.469 15.0751L125.777 16.2469Z" fill="black"/>
</svg>
